<?xml version="1.0" encoding="UTF-8" standalone="no"?>
<!-- Created with Inkscape (http://www.inkscape.org/) -->

<svg
   version="1.1"
   id="svg1"
   width="988.36938"
   height="544.64319"
   viewBox="0 0 988.36938 544.64319"
   sodipodi:docname="SVG-Logo-fit.svg"
   inkscape:version="1.3 (0e150ed6c4, 2023-07-21)"
   xmlns:inkscape="http://www.inkscape.org/namespaces/inkscape"
   xmlns:sodipodi="http://sodipodi.sourceforge.net/DTD/sodipodi-0.dtd"
   xmlns="http://www.w3.org/2000/svg"
   xmlns:svg="http://www.w3.org/2000/svg">
  <defs
     id="defs1" />
  <sodipodi:namedview
     id="namedview1"
     pagecolor="#ffffff"
     bordercolor="#000000"
     borderopacity="0.25"
     inkscape:showpageshadow="2"
     inkscape:pageopacity="0.0"
     inkscape:pagecheckerboard="0"
     inkscape:deskcolor="#d1d1d1"
     showgrid="false"
     inkscape:zoom="0.55774457"
     inkscape:cx="475.12789"
     inkscape:cy="302.10962"
     inkscape:window-width="1920"
     inkscape:window-height="1017"
     inkscape:window-x="-8"
     inkscape:window-y="-8"
     inkscape:window-maximized="1"
     inkscape:current-layer="g1" />
  <g
     inkscape:groupmode="layer"
     inkscape:label="Image"
     id="g1"
     transform="translate(-196.88562,-433.58792)">
    <path
       id="path1"
       style="fill:#000000"
       d="m 321.34093,433.58792 c -0.20828,0.11186 -0.41675,0.22406 -0.625,0.33594 0.20853,-0.10934 0.42319,-0.21903 0.625,-0.33594 z m 162.67773,23.70898 c -5.72169,0.48985 -11.32533,2.6919 -15.65039,6.50586 -4.32285,3.81208 -9.6473,11.45507 -11.97461,17.18946 -2.0687,5.09699 -2.43256,5.46257 -4.87304,4.88086 -1.45067,-0.3458 -3.08672,-0.97741 -3.63672,-1.40235 -0.55,-0.42495 -2.69214,-1.08822 -4.75977,-1.47461 -2.97567,-0.55612 -3.88708,-1.25242 -4.36914,-3.33984 -0.83184,-3.60181 -5.33521,-11.41317 -7.28125,-12.62891 -3.68391,-2.30158 -14.05095,-6.32589 -18.0293,-6.99805 -2.39374,-0.40439 -5.2354,-0.29267 -6.42578,0.25196 -1.17417,0.53713 -4.60976,2.04801 -7.63476,3.35742 -6.43344,2.7847 -13.30356,7.5397 -14.99805,10.38086 -0.65601,1.1 -3.09438,3.57517 -5.41992,5.5 -2.32554,1.925 -5.77145,5.46844 -7.65625,7.87305 -3.94026,5.0269 -9.43041,11.79023 -14.44531,17.79687 -1.9148,2.29321 -3.48047,4.43863 -3.48047,4.76758 0,0.32913 -3.71271,6.15416 -8.25,12.94336 -4.5375,6.78937 -9.44488,14.31934 -10.9043,16.73242 -1.45942,2.4129 -4.72801,7.66272 -7.26367,11.66602 -2.53566,4.00343 -6.48601,10.75364 -8.7793,15 -2.29311,4.24649 -5.79699,10.42087 -7.78515,13.7207 -1.9882,3.3 -4.8671,8.47517 -6.39649,11.5 -1.52939,3.025 -4.39734,8.42517 -6.375,12 -5.75402,10.40171 -16.78353,31.69786 -21.75195,42 -2.51979,5.22496 -7.68126,15.80021 -11.46875,23.5 -7.12559,14.48638 -8.09248,16.57843 -15.0332,32.5 -5.7208,13.1229 -19.27856,49.6333 -24.49415,65.96094 -2.3787,7.4466 -5.01981,15.56406 -5.86914,18.03906 -6.51603,18.98442 -18.58724,59.39884 -20.45898,68.5 -0.56556,2.75 -1.28415,6.20182 -1.59766,7.66992 -0.74071,3.4667 4.42354,13.31065 12.13282,23.12891 5.92773,7.54776 11.68238,12.07222 16.80078,13.20312 1.64626,0.3638 4.25205,1.13761 5.79101,1.72071 2.52558,0.95666 2.72056,1.3641 2,4.16796 -1.49637,5.8268 -0.63844,17.75342 1.73438,24.10938 4.49768,12.04826 16.81686,30.4744 22.35351,33.4375 2.29451,1.2281 12.39242,1.1369 24.01563,-0.2168 1.53048,-0.1783 2.13874,0.81087 3.11719,5.07227 1.37748,5.99946 4.45288,9.83877 8.92578,11.13867 8.19032,2.3804 17.37091,-0.76653 24.40625,-8.36719 2.06914,-2.2354 6.65968,-6.53945 10.20117,-9.56445 7.91902,-6.76426 7.2897,-6.26682 13.94922,-11.02148 3.025,-2.1596 7.975,-5.75564 11,-7.99024 3.025,-2.2346 11.35021,-7.86216 18.5,-12.50586 7.14979,-4.64196 14.10872,-9.23939 15.46484,-10.21289 1.35611,-0.9734 2.93111,-1.99453 3.5,-2.26953 2.53876,-1.2272 11.17722,-6.45589 12.53516,-7.58789 1.39547,-1.1633 9.07686,-5.67552 18.5,-10.86328 2.2,-1.2116 8.72517,-4.8378 14.5,-8.0586 14.65537,-8.17356 26.43931,-14.45195 41,-21.84375 15.24558,-7.73956 26.06247,-13.55042 27.79101,-14.92968 1.93741,-1.5459 3.1302,0.19116 4.73047,6.89062 2.40258,10.05976 2.09702,11.55872 -3.27148,16.07422 -2.6125,2.1973 -5.85421,4.58308 -7.20313,5.30078 -5.22831,2.7821 -14.64735,14.45612 -16.875,20.91602 -3.10773,9.01276 0.0481,23.251 6.44532,29.07226 1.85974,1.6924 3.38281,3.70395 3.38281,4.46875 0,1.8295 8.4047,7.94664 15.14648,11.02344 2.9443,1.3437 9.17852,4.90742 13.85352,7.91992 4.67479,3.0125 10.95649,6.74568 13.95898,8.29688 3.00271,1.5512 7.7904,5.18281 10.64063,8.07031 l 5.18359,5.25 h 6.53516 c 25.38235,0 66.55892,-13.21729 111.18164,-35.69141 14.30047,-7.20236 26.85008,-14.17518 35.25586,-19.58984 3.70929,-2.3894 8.98714,-5.63444 11.72851,-7.21094 2.74158,-1.5765 5.85795,-3.68088 6.92578,-4.67578 1.06771,-0.9949 2.80939,-2.08352 3.86915,-2.41992 1.05972,-0.3363 3.50642,-1.68364 5.4375,-2.99414 3.48615,-2.3659 3.52787,-2.37059 5.95312,-0.46289 3.4644,2.72506 10.61875,4.79896 19.33008,5.60156 10.10417,0.9309 12.3939,1.83764 11.03906,4.36914 -1.3794,2.5775 -1.29168,6.63548 0.25586,11.80664 1.27395,4.2583 5.46751,8.36123 10.61719,10.39063 3.28795,1.29566 10.95099,0.0141 13.16797,-2.20313 2.05059,-2.0506 6.74568,-4.69414 11.91992,-6.71094 8.54638,-3.33136 81.74629,-2.11208 107.5,1.79102 3.29996,0.5001 11.62517,1.39689 18.5,1.99219 6.87479,0.5952 16.1,1.72647 20.5,2.51367 4.39979,0.7873 14.07521,2.37434 21.5,3.52734 12.51899,1.944 26.04827,4.2817 32,5.5293 8.491,1.7798 18.0092,3.6059 21.1719,4.0625 2.0195,0.2916 6.9696,1.39999 11,2.46289 4.0305,1.0629 11.5322,2.82791 16.6719,3.92187 18.9583,4.0357 21.9327,5.29836 29.8125,12.66602 5.0102,4.6845 16.1771,6.88204 22.5274,4.43164 4.1778,-1.6121 11.4428,-9.86968 15.2265,-17.30664 4.2413,-8.33656 10.9183,-19.10269 14.5899,-23.52539 1.375,-1.6563 4.0464,-4.98238 5.9375,-7.39258 1.891,-2.4102 12.3535,-13.25856 23.25,-24.10742 10.8964,-10.84896 19.8457,-20.299 19.8867,-21 0.041,-0.7011 0.2863,-2.40039 0.5469,-3.77539 0.9249,-4.8814 -0.6606,-8.88024 -5.7129,-14.4082 -5.5696,-6.0941 -12.2019,-9.26191 -20.4883,-9.78711 -4.6574,-0.2952 -4.8007,-0.40057 -5.1875,-3.78907 -0.5345,-4.67976 -3.0566,-8.72137 -6.1738,-9.88867 -2.9497,-1.1046 -17.125,-4.75102 -21.5586,-5.54492 -7.3725,-1.3202 -13.7963,-2.76316 -24.5,-5.50586 -6.325,-1.6207 -15.1,-3.68408 -19.5,-4.58398 -9.4676,-1.9363 -11.6799,-2.40908 -30,-6.43164 -7.7001,-1.6907 -16.4751,-3.54921 -19.5001,-4.12891 -3.025,-0.5796 -7.9028,-1.73707 -10.8398,-2.57227 -2.9376,-0.83506 -11.2623,-2.3538 -18.5,-3.375 -7.23801,-1.02106 -15.1852,-2.37675 -17.6602,-3.01171 -2.475,-0.6349 -8.10021,-1.72928 -12.5,-2.43164 -4.4,-0.7023 -12.27521,-1.98828 -17.5,-2.85938 -16.98519,-2.8319 -29.28776,-4.55347 -40.5,-5.66797 -18.68111,-1.857 -18.28225,-1.74723 -19.06446,-5.30859 -0.37925,-1.7269 -1.05016,-3.82878 -1.49023,-4.67188 -0.44007,-0.843 -1.98674,-5.58326 -3.43555,-10.5332 -1.44895,-4.94983 -3.94716,-13.27504 -5.55273,-18.5 -1.60557,-5.22483 -4.29928,-15.35004 -5.98633,-22.5 -1.68704,-7.14979 -3.70783,-15.7 -4.49023,-19 -0.7824,-3.29983 -2.09713,-9.82504 -2.92188,-14.5 -0.82474,-4.67483 -2.12872,-11.425 -2.89648,-15 -0.76776,-3.57483 -1.68713,-8.975 -2.04297,-12 -0.63159,-5.36915 -3.47335,-25.49015 -5.58008,-39.5 -0.57894,-3.84983 -1.10989,-7.675 -1.17969,-8.5 -0.0698,-0.82483 -0.75146,-6.67504 -1.51367,-13 -0.7622,-6.32479 -2.49461,-26.80025 -3.84961,-45.5 -2.27432,-31.38894 -3.05022,-38.05856 -4.9707,-42.70313 -0.93297,-2.25627 -8.37632,-5.79686 -12.1875,-5.79687 -2.86687,0 -3.14111,-0.36214 -5.11914,-6.75 -2.57791,-8.32496 -7.04039,-20.4066 -7.82227,-21.17774 -0.319,-0.31457 -6.16829,-0.48629 -12.99804,-0.38085 l -12.41797,0.1914 -1.96094,-3.8457 c -3.03,-5.93911 -11.05248,-13.51902 -18.03711,-17.04492 -5.98336,-3.02033 -6.72666,-3.15687 -13.67383,-2.50586 -5.50251,0.51565 -8.91011,1.51926 -13.57226,4 -6.07336,3.23167 -14.73633,10.9111 -14.73633,13.0625 0,0.5919 -1.12786,3.41504 -2.50586,6.27148 -1.54091,3.19399 -3.11819,9.31086 -4.0957,15.89063 -1.36727,9.20311 -1.42814,13.27142 -0.4336,29.09961 0.63586,10.12 1.01689,18.5407 0.8457,18.71093 -0.556,0.55294 -5.22786,-3.93331 -8.70898,-8.36132 -1.869,-2.3774 -5.019,-5.40982 -7,-6.73829 -1.981,-1.32842 -5.17656,-3.51323 -7.10156,-4.85546 -5.16936,-3.6045 -34.79402,-18.17182 -46.94531,-23.08594 -17.29709,-6.99484 -28.40729,-9.01217 -48.55469,-8.81055 -12.6561,0.12666 -21.08839,0.81932 -33,2.70899 -17.85759,2.83292 -15.8313,3.20694 -20.79883,-3.83399 -1.67692,-2.37694 -2.18564,-2.5088 -7.5,-1.92578 -7.7977,0.8553 -12.36333,1.76352 -21.52734,4.28125 -4.30396,1.18228 -8.2726,2.25132 -8.81836,2.375 -0.54576,0.12368 -2.07256,-3.99414 -3.39453,-9.15039 -3.86623,-15.07915 -7.99845,-21.6062 -17.46094,-27.58203 -4.80207,-3.03243 -10.64368,-4.25548 -16.36524,-3.76563 z m 1.30664,13.71094 c 1.45339,-0.0543 3.02551,0.11231 4.74024,0.48828 4.63658,1.01662 5.51302,1.65299 8.33008,6.04297 3.51815,5.48271 6.09866,13.18323 7.88867,23.54102 0.65953,3.81639 2.27897,11.43962 3.59961,16.93945 1.32065,5.49996 3.54868,15.17521 4.94922,21.5 1.40053,6.32496 3.46669,15.32517 4.59179,20 1.12527,4.67496 3.8866,16.37521 6.13672,26 2.25029,9.62496 4.95182,20.87517 6.00196,25 1.05009,4.125 3.00236,12.22521 4.33789,18 1.3355,5.77496 3.1422,12.97517 4.01562,16 0.87341,3.025 3.14964,11.97848 5.0586,19.89648 1.90874,7.91804 3.65869,14.70211 3.88867,15.07422 0.22998,0.37212 1.10861,3.79401 1.95117,7.60352 0.84256,3.80963 2.65533,10.97595 4.0293,15.92578 1.37393,4.94996 4.31204,15.75021 6.52929,24 2.21743,8.24996 4.72834,17.47517 5.57813,20.5 0.84979,3.025 2.38346,8.69271 3.4082,12.5957 1.76324,6.71557 4.04302,14.56418 9.55859,32.9043 4.66174,15.50142 7.46471,25.54586 7.47071,26.76562 0.003,0.6792 0.67689,2.51915 1.49609,4.08985 0.81921,1.5707 2.36786,6.47554 3.44141,10.89844 1.07355,4.42286 2.31254,8.36827 2.7539,8.76757 0.73108,0.6615 5.28696,-0.038 20.03711,-3.07812 2.87909,-0.5935 5.46788,-1.044 5.75391,-1 0.28603,0.044 2.1762,-0.61173 4.19922,-1.45703 2.02302,-0.8453 7.19558,-2.43741 11.49414,-3.53321 14.21876,-3.63046 44.09859,-16.3232 52.67773,-22.375 6.94854,-4.90286 14.25001,-12.71369 16.27344,-17.41015 2.19759,-5.1007 2.42082,-12.9032 0.50195,-17.4961 -2.97904,-7.12971 -16.77322,-14.81264 -34.63476,-19.28906 -10.65953,-2.67156 -12.88868,-2.8828 -30.5,-2.88281 -19.81815,1e-5 -21.76475,0.29131 -38,5.66797 -3.3,1.09287 -6.68311,2.20153 -7.51758,2.46484 -1.79983,0.56791 -4.11214,-6.82756 -12.54492,-40.13281 l -5.57031,-22 3.0039,-2.5 c 1.65222,-1.37483 6.74489,-4.41889 11.31641,-6.76563 8.1801,-4.19924 10.71729,-5.8303 24.41992,-15.69335 7.45257,-5.36432 25.38579,-22.31198 25.40039,-24.00391 0.005,-0.57074 2.17148,-3.82178 4.81445,-7.22656 11.82981,-15.23965 19.97008,-42.83509 16.46289,-55.81055 -2.78781,-10.31342 -9.72872,-17.10917 -21.05078,-20.60938 -10.35415,-3.20093 -31.09051,-3.62123 -45.23437,-0.91796 -14.90278,2.84827 -37.31672,9.45135 -43.72461,12.88086 -2.8829,1.54284 -3.12319,1.07673 -6.86133,-13.35352 -1.7097,-6.59979 -4.75231,-18.21088 -6.76172,-25.80274 -2.00923,-7.59182 -3.65234,-14.69712 -3.65234,-15.7871 0,-3.36593 14.11994,-8.51318 35.32422,-12.87696 29.51473,-6.07425 48.15336,-6.74505 68.76562,-2.47461 29.78599,6.17093 56.42282,24.79705 67.8457,47.44141 6.45127,12.78898 8.10964,19.69768 8.76563,36.5 0.68216,17.47258 -1.50079,29.52205 -8.42383,46.5 -7.93149,19.45168 -19.08058,36.93459 -35.66601,55.92578 -3.08636,3.53386 -5.61133,6.70288 -5.61133,7.04102 0,0.33814 3.9375,1.18927 8.75,1.89257 4.81229,0.70333 11,1.87697 13.75,2.60743 2.75,0.73046 6.7878,1.63815 8.97265,2.01757 6.04687,1.05009 20.14545,5.86811 28.52735,9.74805 8.50918,3.93872 14.02456,7.95859 21.23437,15.48047 9.73354,10.15461 14.38721,19.43572 17.20899,34.31055 2.48074,13.07726 8.1e-4,28.3824 -6.31641,38.97656 -1.47582,2.475 -3.40519,5.8088 -4.28711,7.4082 -4.39079,7.96336 -20.89864,25.86562 -32.33984,35.07032 -8.23745,6.62716 -16.49095,12.86698 -20.52735,15.52148 -2.09083,1.375 -7.552,5.2 -12.13476,8.5 -4.58281,3.3 -9.9091,6.84511 -11.83594,7.87891 -1.92684,1.03386 -4.77538,2.9464 -6.33008,4.25 -1.55452,1.30366 -3.43127,2.37109 -4.17187,2.37109 -0.7406,0 -2.61914,1.05455 -4.17383,2.34375 -1.5547,1.2892 -6.42638,4.2841 -10.82617,6.6543 -4.4,2.37026 -10.92504,5.9292 -14.5,7.9082 -7.36734,4.0783 -7.3689,4.07787 -23,11.11523 -6.32483,2.8475 -13.525,6.09445 -16,7.21485 -8.71099,3.94166 -32.53216,11.60767 -48.5,15.60547 -12.54931,3.14196 -17.04743,3.10298 -23.5,-0.20508 -8.95171,-4.5895 -12.04211,-6.36605 -13.82031,-7.94531 -0.92452,-0.8211 -3.25469,-2.15679 -5.17969,-2.96875 -7.17817,-3.0281 -11.95523,-10.76175 -11.98633,-19.40821 -0.0234,-6.49236 1.42445,-8.91588 8.20313,-13.74804 3.45559,-2.4636 8.9832,-6.67687 12.2832,-9.36133 3.29996,-2.6844 6.79291,-5.16738 7.76367,-5.51758 0.97075,-0.3503 2.23366,-1.86529 2.80469,-3.36719 1.63679,-4.30506 0.42693,-10.13009 -7.12696,-34.32031 -2.14685,-6.87496 -4.8576,-16.10004 -6.02343,-20.5 -1.16583,-4.4 -2.71756,-9.575 -3.44727,-11.5 -0.72971,-1.925 -1.59261,-4.7375 -1.91797,-6.25 -0.32555,-1.5133 -1.26523,-2.75 -2.08984,-2.75 -0.82415,0 -8.57782,3.55332 -17.23047,7.89648 -8.65266,4.3432 -20.90763,10.44033 -27.23242,13.54883 -13.67668,6.7218 -36.08576,18.43389 -41,21.42969 -1.925,1.1734 -5.01353,2.83551 -6.86328,3.69141 -1.84974,0.85586 -4.99978,2.58836 -7,3.85156 -2.00025,1.2631 -8.13693,4.91373 -13.63672,8.11133 -21.13882,12.28972 -39.21039,23.57212 -48.06641,30.01172 -3.81322,2.77286 -8.95859,6.2801 -11.43359,7.79296 -2.475,1.5128 -6.12378,3.96969 -8.10742,5.45899 -1.98367,1.4892 -6.70888,4.94915 -10.5,7.68945 -10.17891,7.35696 -24.71712,19.28935 -34.65821,28.44531 -9.40944,8.6663 -11.16247,9.32778 -16.33789,6.17188 -3.38286,-2.063 -11.3607,-14.50462 -14.09961,-21.98828 -2.20685,-6.0318 -2.63778,-24.11133 -0.57422,-24.11133 1.93091,0 0.6018,-6.86936 -1.85156,-9.56836 -1.0342,-1.1377 -4.46464,-2.88245 -7.625,-3.87695 -14.10936,-4.4398 -15.2559,-5.30415 -22.08008,-16.65821 -3.43672,-5.71836 -6.03503,-11.07148 -5.77343,-11.89648 0.2616,-0.825 1.14495,-3.525 1.96093,-6 0.81614,-2.475 2.41503,-7.65 3.55274,-11.5 1.13771,-3.85 3.17667,-10.60004 4.53125,-15 1.35458,-4.4 3.1461,-10.71395 3.98242,-14.03125 0.83632,-3.3174 3.84671,-12.99244 6.68945,-21.5 2.84294,-8.50766 5.96899,-18.16877 6.94532,-21.46875 1.9605,-6.62693 8.42918,-25.29681 10.39453,-30 0.68949,-1.64983 2.7097,-6.82504 4.49023,-11.5 4.7177,-12.3865 14.14929,-34.80814 16.7832,-39.89844 1.25171,-2.41942 2.27735,-4.86808 2.27735,-5.4414 0,-2.14135 36.215,-74.80426 38.88672,-78.02344 0.53943,-0.64999 2.36053,-3.7604 4.04687,-6.91016 7.56377,-14.12828 8.96337,-16.60323 12.84571,-22.72656 2.26642,-3.57483 5.50197,-9.09317 7.1914,-12.26367 1.68943,-3.17038 4.75043,-8.28713 6.80078,-11.36914 7.80988,-11.73856 9.19252,-13.95361 10.53516,-16.86719 0.76036,-1.64983 2.16094,-3.64543 3.11133,-4.43359 0.9504,-0.78821 2.60993,-3.03825 3.68945,-5 2.10367,-3.82283 4.02084,-6.50665 13.38086,-18.73829 8.805,-11.50631 15.39954,-18.41904 23.64258,-24.7832 7.75557,-5.98796 9.01597,-6.54492 14.80273,-6.54492 5.90431,10e-6 8.6065,2.03216 9.57227,7.19531 1.68196,8.99196 -1.67293,43.79016 -5.49414,56.98242 -1.04969,3.62379 -4.95045,9.82994 -11.94336,19.00391 -1.96251,2.57437 -5.36836,7.22317 -7.56836,10.33008 -2.2,3.10707 -5.4625,7.3544 -7.25,9.43945 -1.7875,2.08487 -3.25,4.24007 -3.25,4.78906 0,0.549 -1.73955,3.19457 -3.86524,5.87891 -2.12583,2.68418 -8.02707,11.18107 -13.11328,18.88086 -5.08599,7.69996 -10.10902,15.12517 -11.16211,16.5 -1.05291,1.375 -2.62659,4.06591 -3.49609,5.97852 -0.86951,1.91257 -2.82723,5.28731 -4.34961,7.5 -3.31622,4.81992 -14.01367,23.2426 -14.01367,24.13281 0,0.34533 -1.53541,3.16086 -3.41211,6.25781 -5.67802,9.37 -23.41155,45.44736 -27.58985,56.13086 -0.96793,2.475 -4.89871,12.37521 -8.73632,22 -8.92397,22.38082 -23.85995,63.25941 -35.41797,96.93945 -2.09048,6.0911 -1.38113,7.94321 2.29883,6.00391 1.29651,-0.6833 2.58242,-1.51436 2.85742,-1.84766 0.67517,-0.8183 8.05516,-6.3489 10.13672,-7.5957 0.91823,-0.55 7.00044,-4.19846 13.51562,-8.10742 6.51539,-3.909 14.09766,-8.2684 16.84766,-9.6875 9.0517,-4.6712 24.16222,-11.70508 25.14453,-11.70508 0.53021,0 2.96759,-1.27217 5.41797,-2.82617 2.45038,-1.554 6.58726,-3.63947 9.19336,-4.63477 4.20624,-1.6065 4.85861,-2.27083 5.81054,-5.92383 1.04898,-4.02596 6.8418,-17.2625 13.56446,-31 1.85297,-3.78635 3.36914,-7.52538 3.36914,-8.31054 0,-1.46836 3.41136,-9.36219 7.47851,-17.30469 1.26744,-2.47483 3.86244,-8.32504 5.76758,-13 1.90531,-4.67483 4.93244,-12.10004 6.72656,-16.5 6.17935,-15.15431 23.72261,-65.64424 28.14454,-81 13.83458,-48.04365 15.87464,-59.40113 16.40429,-91.37891 0.21882,-13.21156 0.72892,-20.77185 1.45117,-21.49414 1.30451,-1.30468 7.1448,-1.41953 19.20508,-0.37695 l 8.67969,0.75 1.10352,-5.75 c 3.65605,-19.04537 6.02093,-26.59473 10.33984,-33.02148 2.97532,-4.42741 6.28,-6.57735 10.64062,-6.74024 z m 281.54493,1.99219 c 4.95567,-0.28556 9.92117,1.5032 14.125,5.6289 2.59083,2.54292 5.17803,6.38581 6.26757,9.30665 1.72526,4.62537 2.22762,5.10069 7.1543,6.77539 6.31021,2.14488 7.8697,3.45034 12.56836,10.52929 l 3.57422,5.38672 0.88867,25.19531 c 0.7663,21.72877 2.86918,52.95566 4.45703,66.19727 6.11879,51.02165 19.10623,115.32531 29.79102,147.5 1.36985,4.125 2.819,9.07517 3.2207,11 0.74058,3.54901 3.71027,11.52666 10.0918,27.10352 l 3.52539,8.60156 12.67383,0.57617 c 6.97098,0.317 19.65099,1.49715 28.17578,2.62305 8.52479,1.1259 21.35021,2.74029 28.5,3.58789 12.03402,1.4268 19.00628,2.57092 43,7.05468 4.94979,0.9251 11.475,2.11559 14.5,2.64649 3.025,0.5309 7.525,1.33606 10,1.78906 2.475,0.4531 10.9566,1.9718 18.8477,3.375 7.8911,1.4032 15.7661,3.00745 17.5,3.56445 1.7339,0.5571 4.7273,1.27531 6.6523,1.59571 1.925,0.3204 8.2251,1.67135 14.0001,3.00195 5.775,1.3305 18.15,4.0155 27.5,5.9668 9.35,1.9513 19.7,4.42404 23,5.49414 5.5848,1.8109 11.5487,3.17491 28.8926,6.60937 3.7917,0.7508 7.1199,1.59064 7.3945,1.86524 0.2746,0.2746 -2.5008,3.77122 -6.168,7.77148 -3.6655,4.0003 -11.2116,12.22348 -16.7637,18.27344 -5.5518,6.04996 -12.6276,14.33961 -15.7246,18.42187 -3.097,4.0824 -6.8539,9.03244 -8.3476,11 -1.4937,1.9677 -3.9049,5.79968 -5.3594,8.51368 -1.4546,2.71396 -4.0584,7.06161 -5.7852,9.66211 -1.7264,2.60046 -4.9386,7.72126 -7.1386,11.38086 -6.089,10.12882 -5.5404,9.6545 -9,7.7832 -1.65,-0.8925 -5.7,-2.39123 -9,-3.33203 -3.3,-0.9409 -10.95,-3.58139 -17.0001,-5.86719 -6.05,-2.2858 -13.25,-4.86979 -16,-5.74219 -2.75,-0.8724 -8.8252,-2.86293 -13.5,-4.42383 -4.675,-1.56086 -11.2,-3.49417 -14.5,-4.29687 -47.89079,-11.64886 -65.33145,-15.27249 -84.5,-17.55469 -4.675,-0.5566 -11.42504,-1.46026 -15,-2.00976 -16.81902,-2.5852 -42.60859,-5.04291 -64,-6.09961 -24.56758,-1.2136 -39.73058,-0.59808 -66.4375,2.70312 -9.72572,1.2022 -13.24542,1.25334 -19,0.27344 -13.40712,-2.2829 -21.81036,-8.34442 -23.12305,-16.67578 -0.90113,-5.7204 0.58836,-8.89597 6.59766,-14.07227 6.84837,-5.89916 16.34028,-9.13277 27.19336,-9.26367 12.39845,-0.1494 12.89428,-0.4051 15.50781,-7.94336 1.23106,-3.5515 2.8639,-7.80703 3.62891,-9.45703 0.76497,-1.65 2.86242,-7.72504 4.66211,-13.5 1.79949,-5.77496 3.59497,-10.95 3.98828,-11.5 0.39331,-0.55 1.94647,-4.73975 3.45117,-9.31055 3.06311,-9.30486 3.01632,-10.47359 -0.92383,-23.68945 -7.02602,-23.56608 -11.33603,-39.94383 -14.70312,-55.875 -4.37856,-20.71536 -11.83449,-56.7373 -12.3418,-59.625 -0.24156,-1.37483 -1.59552,-8.80004 -3.00977,-16.5 -1.41408,-7.69979 -3.22782,-17.60004 -4.02929,-22 -0.80151,-4.39983 -2.58105,-16.55021 -3.95508,-27 -1.37402,-10.44962 -3.16251,-22.15 -3.97461,-26 -1.39823,-6.62858 -2.04112,-11.35888 -4.75586,-35 -0.63156,-5.49983 -1.16114,-16.30004 -1.17774,-24 -0.0283,-13.13566 0.14222,-14.40117 2.75977,-20.5 4.63648,-10.80262 12.86928,-17.04358 21.12891,-17.51953 z M 650.14562,597.52542 c 0.144,-0.003 -0.015,1.90681 -0.35352,4.24414 -2.63534,18.20019 -17.0944,43.51595 -31.9082,55.86719 -2.2,1.83427 -6.63104,5.72443 -9.8457,8.64453 -3.21486,2.92028 -8.94092,6.8679 -12.72461,8.77344 -3.78391,1.90551 -7.10847,3.46485 -7.38672,3.46484 -0.27826,0 -0.74176,-1.2375 -1.03125,-2.75 -0.94972,-4.96185 -3.56608,-16.67906 -4.52149,-20.25 -1.08226,-4.04487 -4.25384,-17.99115 -5.91211,-26 -0.62616,-3.02483 -1.23821,-7.075 -1.35937,-9 l -0.21875,-3.5 10,-3.33398 c 22.61316,-7.53896 37.45348,-11.47894 53.5,-14.20313 6.32479,-1.07382 11.61772,-1.95403 11.76172,-1.95703 z m -254.23828,51.38281 c 0.32252,-0.33992 0.47656,-0.31032 0.47656,0.0684 0,1.48338 -4.06371,14.51442 -7.0293,22.54297 -1.52366,4.125 -3.77422,10.65017 -5.00195,14.5 -1.22773,3.85 -2.80987,8.12517 -3.51563,9.5 -0.70559,1.375 -2.28931,5.20017 -3.51953,8.5 -1.23021,3.3 -3.02122,7.35017 -3.97851,9 -0.95729,1.65 -2.90318,6.25918 -4.32422,10.24219 -1.42103,3.98314 -3.55239,9.14026 -4.73633,11.46093 -2.09997,4.11629 -5.57473,12.16702 -10.49023,24.29688 -1.33731,3.3 -3.0679,7.35017 -3.84571,9 -0.77782,1.65 -3.64563,7.72504 -6.37109,13.5 -2.72545,5.77496 -5.80654,11.26686 -6.84766,12.20312 -1.04112,0.9346 -3.86005,2.0161 -6.26367,2.4004 l -4.36914,0.69921 0.72461,-2.88867 c 0.39865,-1.5884 2.8783,-7.84309 5.50976,-13.90039 2.63134,-6.05736 5.13444,-12.13051 5.5625,-13.49609 0.42806,-1.36558 2.2896,-5.75483 4.13672,-9.75391 1.84728,-3.9992 3.35938,-7.74485 3.35938,-8.32226 0,-0.5774 1.38034,-3.53254 3.06836,-6.56641 1.68801,-3.03369 3.65729,-7.17144 4.375,-9.19531 1.64984,-4.65225 19.02743,-40.04007 25.16015,-51.23633 2.54337,-4.64308 7.10804,-13.1684 10.14258,-18.94336 4.33225,-8.24393 6.80976,-12.59157 7.77735,-13.61133 z m 56.875,8.39453 c -0.31642,0.36383 -0.49188,1.55598 -0.81446,3.91016 -1.45171,10.59642 -2.49832,14.12503 -8.54883,28.80664 -0.45333,1.1 -1.83164,4.92517 -3.0625,8.5 -1.23099,3.575 -4.01231,11.45021 -6.18164,17.5 -2.16912,6.04996 -4.54628,13.08616 -5.28125,15.63476 -0.73514,2.54864 -2.54052,7.49868 -4.01172,11 -4.70163,11.18823 -8.21825,21.24262 -8.95703,25.61524 -0.39472,2.33738 -0.33974,4.20539 0.1211,4.15039 0.46085,-0.055 4.81377,-2.19263 9.67383,-4.75 15.44088,-8.12575 42.83948,-21.83863 52.41406,-26.23437 5.08729,-2.33566 9.25,-4.72312 9.25,-5.30469 0,-2.02723 -13.865,-43.56022 -17.39649,-52.11133 -4.99813,-12.10258 -10.679,-22.3772 -12.91015,-23.35156 -0.44336,-0.19362 -1.62695,-1.23312 -2.62891,-2.3086 -0.89216,-0.95762 -1.34959,-1.42047 -1.66601,-1.05664 z m 296.29101,6.50782 c 0.62826,-0.49175 1.22623,0.0108 1.85352,1.45898 1.1837,2.73271 1.24283,2.98948 3.89062,16.75 1.37585,7.14996 3.64084,18.13173 5.03321,24.40234 1.39217,6.27064 2.5332,12.45831 2.5332,13.75 0,1.29168 -0.3375,2.29622 -0.75,2.23242 -2.43477,-0.37654 -4.8957,-1.21682 -5.86524,-2.00195 -2.24776,-1.81995 -26.51258,-13.88281 -27.92578,-13.88281 -0.80252,1e-5 -1.45898,-0.25471 -1.45898,-0.56641 0,-0.85386 5.32506,-7.82761 6.61133,-8.6582 1.57936,-1.02008 12.32321,-23.1962 14.04101,-28.98047 0.75026,-2.52639 1.40885,-4.01219 2.03711,-4.5039 z m -69.38672,121.75585 c 7.52351,-0.09 13.69727,0.23054 13.69727,1.01954 0,4.10396 -5.79291,10.11641 -15,15.57031 -4.125,2.4435 -8.175,4.85944 -9,5.36914 -2.67685,1.6538 -17.01507,7.99414 -18.07813,7.99414 -0.56811,0 -2.91924,0.8484 -5.22656,1.88476 -2.30733,1.0365 -7.18345,2.55514 -10.83398,3.375 l -6.63672,1.49024 -0.66992,-5.04883 c -0.36846,-2.7776 -1.59128,-9.0491 -2.7168,-13.9375 -1.12551,-4.88826 -1.85385,-9.08166 -1.61719,-9.31836 0.23665,-0.2366 2.87242,-0.93202 5.85547,-1.54492 2.98305,-0.6129 8.57383,-1.76108 12.42383,-2.55078 3.84996,-0.7897 11.05,-2.07552 16,-2.85742 5.40559,-0.8539 14.27939,-1.35502 21.80273,-1.44532 z" />
  </g>
</svg>
